<svg width="48" height="48" viewBox="0 0 48 48" fill="none" xmlns="http://www.w3.org/2000/svg">
<rect width="48" height="48" rx="24" fill="#ECF1E0"/>
<path d="M21.625 14.5C21.9375 14.5 22.25 14.8125 22.25 15.125V17H28.5V15.125C28.5 14.8125 28.7734 14.5 29.125 14.5C29.4375 14.5 29.75 14.8125 29.75 15.125V17H31C32.3672 17 33.5 18.1328 33.5 19.5V22V28.25C33.5 29.6562 32.3672 30.75 31 30.75H19.75C18.3438 30.75 17.25 29.6562 17.25 28.25V22V19.5C17.25 18.1328 18.3438 17 19.75 17H21V15.125C21 14.8125 21.2734 14.5 21.625 14.5ZM19.75 18.25C19.0469 18.25 18.5 18.8359 18.5 19.5V20.75H32.25V19.5C32.25 18.8359 31.6641 18.25 31 18.25H19.75ZM32.25 22H18.5V28.25C18.5 28.9531 19.0469 29.5 19.75 29.5H31C31.6641 29.5 32.25 28.9531 32.25 28.25V22ZM14.75 22.625V29.5C14.75 31.5703 16.4297 33.25 18.5 33.25H27.875C28.1875 33.25 28.5 33.5625 28.5 33.875C28.5 34.2266 28.1875 34.5 27.875 34.5H18.5C15.7266 34.5 13.5 32.2734 13.5 29.5V22.625C13.5 22.3125 13.7734 22 14.125 22C14.4375 22 14.75 22.3125 14.75 22.625Z" fill="#025B4B"/>
</svg>
