<svg width="48" height="48" viewBox="0 0 48 48" fill="none" xmlns="http://www.w3.org/2000/svg">
<rect width="48" height="48" rx="24" fill="#FAE7CC"/>
<path d="M16 17C16.6641 17 17.25 17.5859 17.25 18.25C17.25 18.9531 16.6641 19.5 16 19.5C15.2969 19.5 14.75 18.9531 14.75 18.25C14.75 17.5859 15.2969 17 16 17ZM20.375 17.625H32.875C33.1875 17.625 33.5 17.9375 33.5 18.25C33.5 18.6016 33.1875 18.875 32.875 18.875H20.375C20.0234 18.875 19.75 18.6016 19.75 18.25C19.75 17.9375 20.0234 17.625 20.375 17.625ZM20.375 23.875H32.875C33.1875 23.875 33.5 24.1875 33.5 24.5C33.5 24.8516 33.1875 25.125 32.875 25.125H20.375C20.0234 25.125 19.75 24.8516 19.75 24.5C19.75 24.1875 20.0234 23.875 20.375 23.875ZM20.375 30.125H32.875C33.1875 30.125 33.5 30.4375 33.5 30.75C33.5 31.1016 33.1875 31.375 32.875 31.375H20.375C20.0234 31.375 19.75 31.1016 19.75 30.75C19.75 30.4375 20.0234 30.125 20.375 30.125ZM17.25 24.5C17.25 25.2031 16.6641 25.75 16 25.75C15.2969 25.75 14.75 25.2031 14.75 24.5C14.75 23.8359 15.2969 23.25 16 23.25C16.6641 23.25 17.25 23.8359 17.25 24.5ZM16 29.5C16.6641 29.5 17.25 30.0859 17.25 30.75C17.25 31.4531 16.6641 32 16 32C15.2969 32 14.75 31.4531 14.75 30.75C14.75 30.0859 15.2969 29.5 16 29.5Z" fill="#E68A00"/>
</svg>
